<svg width="5472" height="2418" viewBox="0 0 5472 2418" fill="none" xmlns="http://www.w3.org/2000/svg">
<rect x="20" y="20" width="5432" height="2378" rx="1189" fill="white" stroke="#E4E4E4" stroke-width="40"/>
<circle cx="3178.77" cy="1882.85" r="200" transform="rotate(-3 3178.77 1882.85)" fill="#4F4F4F"/>
<mask id="path-3-outside-1_6_4" maskUnits="userSpaceOnUse" x="437.579" y="156.644" width="4537.12" height="1745.55" fill="black">
<rect fill="white" x="437.579" y="156.644" width="4537.12" height="1745.55"/>
<path d="M1330.01 1064.65L1162.45 1091.86C1156.79 1075.09 1147.61 1059.53 1134.91 1045.17C1122.55 1030.8 1106.26 1019.54 1086.03 1011.38C1065.8 1003.22 1041.39 999.892 1012.79 1001.39C974.324 1003.41 942.419 1013.44 917.079 1031.5C892.08 1049.54 880.447 1071.82 882.179 1098.36C883.034 1121.19 892.347 1139.3 910.118 1152.71C928.23 1166.1 957.443 1176.35 997.756 1183.45L1133.05 1205.04C1208.1 1217.15 1264.58 1239.62 1302.49 1272.45C1340.74 1305.27 1361.5 1349.75 1364.79 1405.91C1367.03 1455.29 1354.85 1499.63 1328.23 1538.91C1301.94 1577.84 1264.15 1609.18 1214.87 1632.93C1165.59 1656.68 1108.27 1670.27 1042.91 1673.69C946.903 1678.72 868.57 1662.69 807.908 1625.58C747.229 1588.14 709.381 1533.62 694.364 1462.04L873.718 1435.23C883.744 1470.21 902.507 1496.02 930.007 1512.67C957.507 1529.33 992.535 1536.54 1035.09 1534.31C1079.01 1532 1113.77 1521.14 1139.38 1501.7C1165.33 1482.25 1177.61 1459.24 1176.22 1432.69C1175.04 1410.22 1165.38 1392.12 1147.25 1378.39C1129.47 1364.65 1102.32 1354.8 1065.82 1348.86L930.559 1327.79C854.501 1316.07 797.456 1292.61 759.424 1257.39C721.375 1221.83 701.022 1175.45 698.365 1118.23C695.491 1069.91 706.403 1027.35 731.102 990.55C756.124 953.394 791.957 923.865 838.602 901.962C885.569 879.701 940.373 866.928 1003.01 863.646C1094.93 858.828 1168.3 874.612 1223.12 910.998C1278.28 947.365 1313.91 998.582 1330.01 1064.65ZM1779.44 833.196L1786.93 976.182L1336.02 999.813L1328.53 856.828L1779.44 833.196ZM1430 663.069L1614.86 653.381L1653.45 1389.76C1654.76 1414.61 1659.5 1433.48 1667.69 1446.36C1676.19 1458.89 1686.87 1467.21 1699.72 1471.31C1712.56 1475.42 1726.65 1477.07 1741.97 1476.27C1753.54 1475.66 1764.05 1474.26 1773.49 1472.05C1783.28 1469.83 1790.69 1467.91 1795.72 1466.28L1834.45 1609.16C1824.75 1613.09 1810.82 1617.57 1792.65 1622.62C1774.82 1627.65 1752.82 1631.19 1726.64 1633.25C1680.41 1637.04 1638.34 1632.24 1600.43 1618.87C1562.5 1605.15 1531.78 1582.53 1508.28 1550.98C1485.12 1519.43 1472.43 1479.13 1470.2 1430.08L1430 663.069ZM1874.49 1614.75L1833.38 830.369L2018.24 820.681L2059.35 1605.06L1874.49 1614.75ZM1920.49 714.174C1891.21 715.708 1865.51 707.326 1843.39 689.027C1821.24 670.387 1809.45 647.28 1808 619.704C1806.54 591.788 1815.85 567.574 1835.95 547.063C1856.02 526.211 1880.69 515.018 1909.97 513.483C1939.59 511.931 1965.3 520.484 1987.1 539.141C2009.23 557.44 2021.02 580.547 2022.48 608.464C2023.93 636.039 2014.61 660.253 1994.54 681.105C1974.79 701.599 1950.11 712.622 1920.49 714.174ZM2491.73 1597.76C2413.43 1601.86 2345.29 1588.2 2287.31 1556.76C2229.68 1525.3 2184.12 1480.06 2150.65 1421.05C2117.5 1361.68 2098.84 1292.34 2094.69 1213.01C2090.51 1133.35 2102.15 1062.25 2129.59 999.701C2157.02 936.816 2197.76 886.888 2251.81 849.918C2306.18 812.589 2371.66 791.918 2448.26 787.903C2511.92 784.567 2568.88 793.359 2619.14 814.281C2669.72 834.844 2710.76 865.636 2742.27 906.656C2773.76 947.337 2793.03 995.827 2800.07 1052.13L2623.38 1061.39C2614.25 1023.97 2595.58 993.373 2567.37 969.589C2539.47 945.448 2503.23 934.546 2458.63 936.883C2420.84 938.864 2388.18 950.816 2360.66 972.742C2333.11 994.326 2312.33 1024.43 2298.31 1063.06C2284.63 1101.67 2279.17 1147.36 2281.94 1200.13C2284.74 1253.58 2294.98 1299.13 2312.65 1336.78C2330.31 1374.08 2353.81 1402.38 2383.16 1421.67C2412.83 1440.6 2446.9 1449.05 2485.37 1447.04C2512.6 1445.61 2536.68 1439.23 2557.59 1427.89C2578.82 1416.19 2596.24 1400.09 2609.85 1379.58C2623.45 1359.06 2632.24 1334.54 2636.2 1305.99L2812.89 1296.73C2811.37 1352.46 2797.61 1402.51 2771.6 1446.88C2745.58 1490.92 2708.85 1526.3 2661.44 1553.02C2614 1579.4 2557.43 1594.32 2491.73 1597.76ZM3033.69 1307.18L3021.49 1084.05L3051.11 1082.5L3316.48 752.643L3532.49 741.323L3205.98 1145.56L3167.68 1147.56L3033.69 1307.18ZM2878.08 1562.15L2823.27 516.314L3008.13 506.626L3062.94 1552.46L2878.08 1562.15ZM3370.35 1536.35L3096.32 1192.78L3214.09 1056.03L3591.47 1524.76L3370.35 1536.35ZM3911.89 1523.33C3833.25 1527.46 3764.47 1514.67 3705.56 1484.99C3646.98 1454.95 3600.79 1410.6 3566.99 1351.94C3533.17 1292.95 3514.12 1222.43 3509.82 1140.39C3505.59 1059.7 3517.2 988.086 3544.64 925.541C3572.41 862.638 3613.15 812.71 3666.86 775.758C3720.55 738.465 3784.84 717.856 3859.74 713.931C3908.08 711.397 3954.11 716.837 3997.83 730.249C4041.87 743.303 4081.25 765.136 4115.96 795.747C4151.02 826.34 4179.39 866.16 4201.08 915.206C4222.75 963.911 4235.39 1022.65 4238.99 1091.42L4241.96 1148.1L3599.04 1181.8L3592.51 1057.19L4058.23 1032.79C4056.04 997.398 4046.73 966.309 4030.3 939.518C4013.86 912.387 3991.77 891.526 3964.04 876.934C3936.65 862.325 3905.25 855.949 3869.84 857.804C3832.05 859.785 3799.34 870.716 3771.71 890.599C3744.05 910.141 3723 935.14 3708.56 965.597C3694.43 995.696 3688.12 1028.29 3689.61 1063.37L3695.31 1172.14C3697.7 1217.76 3708.1 1256.47 3726.49 1288.28C3744.87 1319.75 3769.49 1343.38 3800.36 1359.17C3831.21 1374.63 3866.72 1381.3 3906.89 1379.19C3933.79 1377.78 3957.93 1372.76 3979.33 1364.13C4000.71 1355.16 4019 1342.76 4034.22 1326.95C4049.44 1311.13 4060.55 1291.94 4067.56 1269.38L4241.18 1279.74C4232.68 1325.93 4214 1366.85 4185.14 1402.5C4156.61 1437.8 4119.17 1466.04 4072.83 1487.25C4026.48 1508.11 3972.83 1520.14 3911.89 1523.33ZM4315.6 1486.81L4274.49 702.436L4453.73 693.042L4460.58 823.772L4468.75 823.344C4480.68 777.316 4503.36 741.136 4536.8 714.804C4570.57 688.114 4609.92 673.592 4654.85 671.237C4665.07 670.701 4676.5 670.614 4689.15 670.975C4702.12 670.978 4712.91 671.608 4721.51 672.864L4730.42 842.915C4722.45 840.602 4709.9 838.87 4692.77 837.719C4675.96 836.21 4659.73 835.866 4644.07 836.687C4610.36 838.453 4580.45 847.361 4554.32 863.409C4528.51 879.1 4508.62 900.113 4494.64 926.449C4480.66 952.785 4474.54 982.634 4476.29 1016L4500.46 1477.13L4315.6 1486.81Z"/>
</mask>
<path d="M1330.01 1064.65L1162.45 1091.86C1156.79 1075.09 1147.61 1059.53 1134.91 1045.17C1122.55 1030.8 1106.26 1019.54 1086.03 1011.38C1065.8 1003.22 1041.39 999.892 1012.79 1001.39C974.324 1003.41 942.419 1013.44 917.079 1031.5C892.08 1049.54 880.447 1071.82 882.179 1098.36C883.034 1121.19 892.347 1139.3 910.118 1152.71C928.23 1166.1 957.443 1176.35 997.756 1183.45L1133.05 1205.04C1208.1 1217.15 1264.58 1239.62 1302.49 1272.45C1340.74 1305.27 1361.5 1349.75 1364.79 1405.91C1367.03 1455.29 1354.85 1499.63 1328.23 1538.91C1301.94 1577.84 1264.15 1609.18 1214.87 1632.93C1165.59 1656.68 1108.27 1670.27 1042.91 1673.69C946.903 1678.72 868.57 1662.69 807.908 1625.58C747.229 1588.14 709.381 1533.62 694.364 1462.04L873.718 1435.23C883.744 1470.21 902.507 1496.02 930.007 1512.67C957.507 1529.33 992.535 1536.54 1035.09 1534.31C1079.01 1532 1113.77 1521.14 1139.38 1501.7C1165.33 1482.25 1177.61 1459.24 1176.22 1432.69C1175.04 1410.22 1165.38 1392.12 1147.25 1378.39C1129.47 1364.65 1102.32 1354.8 1065.82 1348.86L930.559 1327.79C854.501 1316.07 797.456 1292.61 759.424 1257.39C721.375 1221.83 701.022 1175.45 698.365 1118.23C695.491 1069.91 706.403 1027.35 731.102 990.55C756.124 953.394 791.957 923.865 838.602 901.962C885.569 879.701 940.373 866.928 1003.01 863.646C1094.93 858.828 1168.3 874.612 1223.12 910.998C1278.28 947.365 1313.91 998.582 1330.01 1064.65ZM1779.44 833.196L1786.93 976.182L1336.02 999.813L1328.53 856.828L1779.44 833.196ZM1430 663.069L1614.86 653.381L1653.45 1389.76C1654.76 1414.61 1659.5 1433.48 1667.69 1446.36C1676.19 1458.89 1686.87 1467.21 1699.72 1471.31C1712.56 1475.42 1726.65 1477.07 1741.97 1476.27C1753.54 1475.66 1764.05 1474.26 1773.49 1472.05C1783.28 1469.83 1790.69 1467.91 1795.72 1466.28L1834.45 1609.16C1824.75 1613.09 1810.82 1617.57 1792.65 1622.62C1774.82 1627.65 1752.82 1631.19 1726.64 1633.25C1680.41 1637.04 1638.34 1632.24 1600.43 1618.87C1562.5 1605.15 1531.78 1582.53 1508.28 1550.98C1485.12 1519.43 1472.43 1479.13 1470.2 1430.08L1430 663.069ZM1874.49 1614.75L1833.38 830.369L2018.24 820.681L2059.35 1605.06L1874.49 1614.75ZM1920.49 714.174C1891.21 715.708 1865.51 707.326 1843.39 689.027C1821.24 670.387 1809.45 647.28 1808 619.704C1806.54 591.788 1815.85 567.574 1835.95 547.063C1856.02 526.211 1880.69 515.018 1909.97 513.483C1939.59 511.931 1965.3 520.484 1987.1 539.141C2009.23 557.44 2021.02 580.547 2022.48 608.464C2023.93 636.039 2014.61 660.253 1994.54 681.105C1974.79 701.599 1950.11 712.622 1920.49 714.174ZM2491.73 1597.76C2413.43 1601.86 2345.29 1588.2 2287.31 1556.76C2229.68 1525.3 2184.12 1480.06 2150.65 1421.05C2117.5 1361.68 2098.84 1292.34 2094.69 1213.01C2090.51 1133.35 2102.15 1062.25 2129.59 999.701C2157.02 936.816 2197.76 886.888 2251.81 849.918C2306.18 812.589 2371.66 791.918 2448.26 787.903C2511.92 784.567 2568.88 793.359 2619.14 814.281C2669.72 834.844 2710.76 865.636 2742.27 906.656C2773.76 947.337 2793.03 995.827 2800.07 1052.13L2623.38 1061.39C2614.25 1023.97 2595.58 993.373 2567.37 969.589C2539.47 945.448 2503.23 934.546 2458.63 936.883C2420.84 938.864 2388.18 950.816 2360.66 972.742C2333.11 994.326 2312.33 1024.43 2298.31 1063.06C2284.63 1101.67 2279.17 1147.36 2281.94 1200.13C2284.74 1253.58 2294.98 1299.13 2312.65 1336.78C2330.31 1374.08 2353.81 1402.38 2383.16 1421.67C2412.83 1440.6 2446.9 1449.05 2485.37 1447.04C2512.6 1445.61 2536.68 1439.23 2557.59 1427.89C2578.82 1416.19 2596.24 1400.09 2609.85 1379.58C2623.45 1359.06 2632.24 1334.54 2636.2 1305.99L2812.89 1296.73C2811.37 1352.46 2797.61 1402.51 2771.6 1446.88C2745.58 1490.92 2708.85 1526.3 2661.44 1553.02C2614 1579.4 2557.43 1594.32 2491.73 1597.76ZM3033.69 1307.18L3021.49 1084.05L3051.11 1082.5L3316.48 752.643L3532.49 741.323L3205.98 1145.56L3167.68 1147.56L3033.69 1307.18ZM2878.08 1562.15L2823.27 516.314L3008.13 506.626L3062.94 1552.46L2878.08 1562.15ZM3370.35 1536.35L3096.32 1192.78L3214.09 1056.03L3591.47 1524.76L3370.35 1536.35ZM3911.89 1523.33C3833.25 1527.46 3764.47 1514.67 3705.56 1484.99C3646.98 1454.95 3600.79 1410.6 3566.99 1351.94C3533.17 1292.95 3514.12 1222.43 3509.82 1140.39C3505.59 1059.7 3517.2 988.086 3544.64 925.541C3572.41 862.638 3613.15 812.71 3666.86 775.758C3720.55 738.465 3784.84 717.856 3859.74 713.931C3908.08 711.397 3954.11 716.837 3997.83 730.249C4041.87 743.303 4081.25 765.136 4115.96 795.747C4151.02 826.34 4179.39 866.16 4201.08 915.206C4222.75 963.911 4235.39 1022.65 4238.99 1091.42L4241.96 1148.1L3599.04 1181.8L3592.51 1057.19L4058.23 1032.79C4056.04 997.398 4046.73 966.309 4030.3 939.518C4013.86 912.387 3991.77 891.526 3964.04 876.934C3936.65 862.325 3905.25 855.949 3869.84 857.804C3832.05 859.785 3799.34 870.716 3771.71 890.599C3744.05 910.141 3723 935.14 3708.56 965.597C3694.43 995.696 3688.12 1028.29 3689.61 1063.37L3695.31 1172.14C3697.7 1217.76 3708.1 1256.47 3726.49 1288.28C3744.87 1319.75 3769.49 1343.38 3800.36 1359.17C3831.21 1374.63 3866.72 1381.3 3906.89 1379.19C3933.79 1377.78 3957.93 1372.76 3979.33 1364.13C4000.71 1355.16 4019 1342.76 4034.22 1326.95C4049.44 1311.13 4060.55 1291.94 4067.56 1269.38L4241.18 1279.74C4232.68 1325.93 4214 1366.85 4185.14 1402.5C4156.61 1437.8 4119.17 1466.04 4072.83 1487.25C4026.48 1508.11 3972.83 1520.14 3911.89 1523.33ZM4315.6 1486.81L4274.49 702.436L4453.73 693.042L4460.58 823.772L4468.75 823.344C4480.68 777.316 4503.36 741.136 4536.8 714.804C4570.57 688.114 4609.92 673.592 4654.85 671.237C4665.07 670.701 4676.5 670.614 4689.15 670.975C4702.12 670.978 4712.91 671.608 4721.51 672.864L4730.42 842.915C4722.45 840.602 4709.9 838.87 4692.77 837.719C4675.96 836.21 4659.73 835.866 4644.07 836.687C4610.36 838.453 4580.45 847.361 4554.32 863.409C4528.51 879.1 4508.62 900.113 4494.64 926.449C4480.66 952.785 4474.54 982.634 4476.29 1016L4500.46 1477.13L4315.6 1486.81Z" fill="white"/>
<path d="M1330.01 1064.65L1362.07 1262.06C1417.1 1253.12 1465.9 1221.62 1496.7 1175.16C1527.51 1128.69 1537.52 1071.48 1524.32 1017.31L1330.01 1064.65ZM1162.45 1091.86L972.943 1155.8C1004.22 1248.49 1097.95 1304.96 1194.52 1289.28L1162.45 1091.86ZM1134.91 1045.17L983.272 1175.58C983.884 1176.29 984.501 1177 985.122 1177.7L1134.91 1045.17ZM1086.03 1011.38L1160.83 825.893L1160.83 825.893L1086.03 1011.38ZM917.079 1031.5L801.021 868.617C800.698 868.846 800.377 869.077 800.056 869.309L917.079 1031.5ZM882.179 1098.36L1082.04 1090.87C1081.97 1089.03 1081.87 1087.18 1081.75 1085.33L882.179 1098.36ZM910.118 1152.71L789.671 1312.37C790.189 1312.76 790.709 1313.15 791.231 1313.54L910.118 1152.71ZM997.756 1183.45L963.045 1380.41C964.11 1380.6 965.177 1380.78 966.246 1380.95L997.756 1183.45ZM1133.05 1205.04L1164.91 1007.59C1164.79 1007.57 1164.68 1007.55 1164.56 1007.53L1133.05 1205.04ZM1302.49 1272.45L1171.55 1423.63C1171.78 1423.83 1172.02 1424.04 1172.26 1424.24L1302.49 1272.45ZM1364.79 1405.91L1564.58 1396.82C1564.54 1395.96 1564.5 1395.09 1564.45 1394.23L1364.79 1405.91ZM1328.23 1538.91L1162.65 1426.74C1162.6 1426.82 1162.55 1426.89 1162.5 1426.97L1328.23 1538.91ZM1214.87 1632.93L1301.7 1813.1L1214.87 1632.93ZM807.908 1625.58L702.88 1795.79C703.103 1795.92 703.327 1796.06 703.552 1796.2L807.908 1625.58ZM694.364 1462.04L664.796 1264.24C610.332 1272.38 561.634 1302.62 530.185 1347.82C498.735 1393.03 487.318 1449.2 498.624 1503.1L694.364 1462.04ZM873.718 1435.23L1065.98 1380.12C1038.32 1283.63 943.423 1222.59 844.151 1237.43L873.718 1435.23ZM930.007 1512.67L1033.6 1341.59L1033.6 1341.59L930.007 1512.67ZM1139.38 1501.7L1019.41 1341.67C1019.1 1341.91 1018.79 1342.15 1018.47 1342.39L1139.38 1501.7ZM1147.25 1378.39L1024.96 1536.65C1025.48 1537.05 1025.99 1537.44 1026.51 1537.83L1147.25 1378.39ZM1065.82 1348.86L1097.95 1151.46C1097.5 1151.39 1097.06 1151.32 1096.61 1151.25L1065.82 1348.86ZM930.559 1327.79L961.348 1130.17C961.236 1130.16 961.124 1130.14 961.011 1130.12L930.559 1327.79ZM759.424 1257.39L622.869 1403.51C623.091 1403.72 623.314 1403.93 623.537 1404.14L759.424 1257.39ZM698.365 1118.23L898.149 1108.96C898.109 1108.09 898.063 1107.23 898.012 1106.36L698.365 1118.23ZM731.102 990.55L565.211 878.836C565.154 878.92 565.097 879.004 565.041 879.089L731.102 990.55ZM838.602 901.962L923.61 1083C923.827 1082.89 924.045 1082.79 924.261 1082.69L838.602 901.962ZM1223.12 910.998L1112.52 1077.63C1112.7 1077.75 1112.87 1077.86 1113.04 1077.97L1223.12 910.998ZM1330.01 1064.65L1297.94 867.236L1130.38 894.451L1162.45 1091.86L1194.52 1289.28L1362.07 1262.06L1330.01 1064.65ZM1162.45 1091.86L1351.96 1027.93C1337.08 983.844 1313.61 945.318 1284.7 912.648L1134.91 1045.17L985.122 1177.7C981.618 1173.74 976.501 1166.34 972.943 1155.8L1162.45 1091.86ZM1134.91 1045.17L1286.55 914.769C1250.41 872.74 1206.22 844.197 1160.83 825.893L1086.03 1011.38L1011.23 1196.86C1006.3 1194.87 994.695 1188.86 983.272 1175.58L1134.91 1045.17ZM1086.03 1011.38L1160.83 825.893C1106.49 803.978 1051.33 799.097 1002.33 801.665L1012.79 1001.39L1023.26 1201.12C1027 1200.92 1027.55 1201.2 1025.53 1200.93C1023.42 1200.64 1018.29 1199.71 1011.23 1196.86L1086.03 1011.38ZM1012.79 1001.39L1002.33 801.665C934.917 805.198 863.97 823.763 801.021 868.617L917.079 1031.5L1033.14 1194.38C1027.47 1198.42 1022.6 1200.4 1020.02 1201.21C1017.69 1201.95 1018.36 1201.37 1023.26 1201.12L1012.79 1001.39ZM917.079 1031.5L800.056 869.309C729.657 920.103 675.606 1004.18 682.603 1111.39L882.179 1098.36L1081.75 1085.33C1083.13 1106.43 1079.04 1131.04 1066.9 1154.29C1055.43 1176.27 1041.23 1188.55 1034.1 1193.69L917.079 1031.5ZM882.179 1098.36L682.319 1105.84C685.356 1186.94 722.463 1261.67 789.671 1312.37L910.118 1152.71L1030.57 993.047C1043.45 1002.77 1057.33 1017.5 1067.68 1037.63C1077.95 1057.61 1081.5 1076.6 1082.04 1090.87L882.179 1098.36ZM910.118 1152.71L791.231 1313.54C847.056 1354.81 913.29 1371.65 963.045 1380.41L997.756 1183.45L1032.47 986.485C1026.36 985.409 1021.6 984.375 1018.03 983.484C1014.43 982.586 1012.45 981.935 1011.81 981.71C1011.13 981.471 1012.42 981.874 1015.14 983.236C1017.84 984.583 1022.79 987.29 1029.01 991.882L910.118 1152.71ZM997.756 1183.45L966.246 1380.95L1101.54 1402.54L1133.05 1205.04L1164.56 1007.53L1029.27 985.948L997.756 1183.45ZM1133.05 1205.04L1101.19 1402.48C1127.73 1406.76 1145.96 1412.11 1157.76 1416.8C1169.47 1421.46 1172.68 1424.61 1171.55 1423.63L1302.49 1272.45L1433.43 1121.28C1356.5 1054.64 1259.09 1022.79 1164.91 1007.59L1133.05 1205.04ZM1302.49 1272.45L1172.26 1424.24C1171.59 1423.67 1170.34 1422.47 1168.93 1420.61C1167.5 1418.75 1166.35 1416.8 1165.52 1415.03C1163.76 1411.26 1164.75 1411.12 1165.13 1417.59L1364.79 1405.91L1564.45 1394.23C1558.4 1290.82 1517.15 1193.11 1432.72 1120.67L1302.49 1272.45ZM1364.79 1405.91L1164.99 1415C1165.24 1420.33 1164.62 1422.7 1164.49 1423.19C1164.37 1423.6 1164.1 1424.61 1162.65 1426.74L1328.23 1538.91L1493.81 1651.09C1545.66 1574.56 1568.7 1487.33 1564.58 1396.82L1364.79 1405.91ZM1328.23 1538.91L1162.5 1426.97C1159.06 1432.06 1150.75 1441.82 1128.05 1452.76L1214.87 1632.93L1301.7 1813.1C1377.55 1776.55 1444.82 1723.63 1493.97 1650.86L1328.23 1538.91ZM1214.87 1632.93L1128.05 1452.76C1106.88 1462.96 1076.41 1471.66 1032.44 1473.96L1042.91 1673.69L1053.37 1873.42C1140.13 1868.87 1224.31 1850.4 1301.7 1813.1L1214.87 1632.93ZM1042.91 1673.69L1032.44 1473.96C962.883 1477.61 928.256 1464.75 912.265 1454.97L807.908 1625.58L703.552 1796.2C808.883 1860.62 930.922 1879.83 1053.37 1873.42L1042.91 1673.69ZM807.908 1625.58L912.937 1455.38C900.261 1447.56 894.191 1440.47 890.103 1420.98L694.364 1462.04L498.624 1503.1C524.57 1626.78 594.197 1728.72 702.88 1795.79L807.908 1625.58ZM694.364 1462.04L723.931 1659.84L903.285 1633.03L873.718 1435.23L844.151 1237.43L664.796 1264.24L694.364 1462.04ZM873.718 1435.23L681.46 1490.34C703.402 1566.89 750.05 1637.51 826.415 1683.76L930.007 1512.67L1033.6 1341.59C1042.44 1346.95 1050.71 1354.46 1057.09 1363.24C1063.22 1371.66 1065.45 1378.27 1065.98 1380.12L873.718 1435.23ZM930.007 1512.67L826.415 1683.75C897.753 1726.95 975.794 1737.69 1045.56 1734.03L1035.09 1534.31L1024.62 1334.58C1017.23 1334.97 1015.22 1334.26 1017.23 1334.68C1019.57 1335.16 1025.76 1336.85 1033.6 1341.59L930.007 1512.67ZM1035.09 1534.31L1045.56 1734.03C1115.17 1730.38 1192.96 1712.11 1260.29 1661.02L1139.38 1501.7L1018.47 1342.39C1026.37 1336.39 1032.62 1334.1 1034.42 1333.54C1035.9 1333.08 1033.2 1334.13 1024.62 1334.58L1035.09 1534.31ZM1139.38 1501.7L1259.34 1661.73C1325.26 1612.31 1381.61 1530.47 1375.94 1422.22L1176.22 1432.69L976.49 1443.16C975.32 1420.84 980.257 1396.95 991.612 1375.68C1002.19 1355.87 1014.53 1345.33 1019.41 1341.67L1139.38 1501.7ZM1176.22 1432.69L1375.94 1422.22C1371.64 1340.15 1332.54 1267.83 1268 1218.95L1147.25 1378.39L1026.51 1537.83C1015.02 1529.13 1001.84 1515.55 991.625 1496.39C981.376 1477.17 977.284 1458.31 976.49 1443.16L1176.22 1432.69ZM1147.25 1378.39L1269.55 1220.14C1213.63 1176.93 1148.5 1159.69 1097.95 1151.46L1065.82 1348.86L1033.7 1546.27C1042.9 1547.76 1046.22 1549.03 1045.37 1548.72C1044.8 1548.51 1042.58 1547.67 1039.19 1545.89C1035.79 1544.11 1030.81 1541.17 1024.96 1536.65L1147.25 1378.39ZM1065.82 1348.86L1096.61 1151.25L961.348 1130.17L930.559 1327.79L899.77 1525.41L1035.04 1546.48L1065.82 1348.86ZM930.559 1327.79L961.011 1130.12C906.359 1121.7 893.055 1108.55 895.311 1110.64L759.424 1257.39L623.537 1404.14C701.856 1476.66 802.643 1510.44 900.107 1525.46L930.559 1327.79ZM759.424 1257.39L895.979 1111.26C895.876 1111.17 896.359 1111.61 897.072 1112.61C897.793 1113.62 898.377 1114.68 898.767 1115.57C899.146 1116.43 899.107 1116.6 898.917 1115.75C898.719 1114.85 898.322 1112.68 898.149 1108.96L698.365 1118.23L498.58 1127.51C503.393 1231.15 542.731 1328.62 622.869 1403.51L759.424 1257.39ZM698.365 1118.23L898.012 1106.36C897.843 1103.51 897.93 1101.67 898.016 1100.69C898.101 1099.73 898.196 1099.47 898.127 1099.74C898.054 1100.03 897.895 1100.53 897.633 1101.11C897.512 1101.38 897.396 1101.61 897.301 1101.78C897.206 1101.95 897.152 1102.03 897.163 1102.01L731.102 990.55L565.041 879.089C513.674 955.618 493.5 1042.38 498.717 1130.11L698.365 1118.23ZM731.102 990.55L896.993 1102.26C898.936 1099.38 904.691 1091.88 923.61 1083L838.602 901.962L753.593 720.927C679.223 755.849 613.311 807.408 565.211 878.836L731.102 990.55ZM838.602 901.962L924.261 1082.69C943.308 1073.66 971.641 1065.56 1013.48 1063.37L1003.01 863.646L992.548 663.92C909.106 668.293 827.83 685.739 752.942 721.234L838.602 901.962ZM1003.01 863.646L1013.48 1063.37C1079.21 1059.93 1105.24 1072.8 1112.52 1077.63L1223.12 910.998L1333.72 744.361C1231.37 676.427 1110.66 657.73 992.548 663.92L1003.01 863.646ZM1223.12 910.998L1113.04 1077.97C1124.67 1085.65 1131.17 1093.42 1135.69 1111.98L1330.01 1064.65L1524.32 1017.31C1496.66 903.744 1431.9 809.084 1333.21 744.022L1223.12 910.998ZM1779.44 833.196L1979.17 822.729C1973.39 712.423 1879.28 627.689 1768.97 633.47L1779.44 833.196ZM1786.93 976.182L1797.4 1175.91C1907.71 1170.13 1992.44 1076.02 1986.66 965.714L1786.93 976.182ZM1336.02 999.813L1136.29 1010.28C1142.07 1120.59 1236.18 1205.32 1346.49 1199.54L1336.02 999.813ZM1328.53 856.828L1318.06 657.102C1207.75 662.883 1123.02 756.989 1128.8 867.295L1328.53 856.828ZM1430 663.069L1419.53 463.343C1309.23 469.124 1224.49 563.231 1230.28 673.537L1430 663.069ZM1614.86 653.381L1814.59 642.914C1808.81 532.608 1714.7 447.874 1604.39 453.655L1614.86 653.381ZM1667.69 1446.36L1498.87 1553.61C1499.97 1555.33 1501.09 1557.04 1502.24 1558.74L1667.69 1446.36ZM1699.72 1471.31L1638.83 1661.82L1638.83 1661.82L1699.72 1471.31ZM1773.49 1472.05L1729.24 1277.01C1728.85 1277.1 1728.47 1277.19 1728.08 1277.28L1773.49 1472.05ZM1795.72 1466.28L1988.76 1413.96C1974.44 1361.15 1939.12 1316.51 1891.01 1290.44C1842.9 1264.37 1786.21 1259.15 1734.15 1275.99L1795.72 1466.28ZM1834.45 1609.16L1909.45 1794.57C2003.28 1756.61 2053.96 1654.54 2027.48 1556.85L1834.45 1609.16ZM1792.65 1622.62L1739.1 1429.92C1738.85 1429.99 1738.59 1430.06 1738.34 1430.14L1792.65 1622.62ZM1726.64 1633.25L1710.99 1433.86C1710.76 1433.88 1710.53 1433.9 1710.3 1433.92L1726.64 1633.25ZM1600.43 1618.87L1532.42 1806.95C1532.91 1807.13 1533.4 1807.3 1533.89 1807.48L1600.43 1618.87ZM1508.28 1550.98L1347.05 1669.32C1347.33 1669.71 1347.62 1670.09 1347.91 1670.48L1508.28 1550.98ZM1470.2 1430.08L1669.99 1421C1669.97 1420.54 1669.95 1420.08 1669.93 1419.62L1470.2 1430.08ZM1779.44 833.196L1579.72 843.663L1587.21 986.649L1786.93 976.182L1986.66 965.714L1979.17 822.729L1779.44 833.196ZM1786.93 976.182L1776.47 776.456L1325.55 800.087L1336.02 999.813L1346.49 1199.54L1797.4 1175.91L1786.93 976.182ZM1336.02 999.813L1535.75 989.346L1528.25 846.36L1328.53 856.828L1128.8 867.295L1136.29 1010.28L1336.02 999.813ZM1328.53 856.828L1338.99 1056.55L1789.91 1032.92L1779.44 833.196L1768.97 633.47L1318.06 657.102L1328.53 856.828ZM1430 663.069L1440.47 862.795L1625.33 853.107L1614.86 653.381L1604.39 453.655L1419.53 463.343L1430 663.069ZM1614.86 653.381L1415.14 663.848L1453.73 1400.22L1653.45 1389.76L1853.18 1379.29L1814.59 642.914L1614.86 653.381ZM1653.45 1389.76L1453.73 1400.22C1455.82 1440.1 1464.05 1498.8 1498.87 1553.61L1667.69 1446.36L1836.5 1339.12C1846.51 1354.87 1850.47 1367.91 1851.95 1373.78C1853.47 1379.8 1853.33 1382.18 1853.18 1379.29L1653.45 1389.76ZM1667.69 1446.36L1502.24 1558.74C1532.62 1603.47 1578.16 1642.43 1638.83 1661.82L1699.72 1471.31L1760.61 1280.81C1795.58 1291.98 1819.76 1314.31 1833.13 1333.99L1667.69 1446.36ZM1699.72 1471.31L1638.83 1661.82C1677.64 1674.22 1716.25 1677.89 1752.43 1675.99L1741.97 1476.27L1731.5 1276.54C1737.04 1276.25 1747.48 1276.61 1760.61 1280.81L1699.72 1471.31ZM1741.97 1476.27L1752.43 1675.99C1773.58 1674.88 1796.02 1672.17 1818.91 1666.83L1773.49 1472.05L1728.08 1277.28C1730.15 1276.79 1731.52 1276.59 1732.04 1276.52C1732.57 1276.45 1732.42 1276.49 1731.5 1276.54L1741.97 1476.27ZM1773.49 1472.05L1817.74 1667.1C1829.19 1664.5 1843.58 1661.01 1857.3 1656.57L1795.72 1466.28L1734.15 1275.99C1735.51 1275.55 1736.38 1275.3 1736.58 1275.25C1736.81 1275.18 1736.68 1275.22 1736.11 1275.37C1734.91 1275.68 1732.7 1276.23 1729.24 1277.01L1773.49 1472.05ZM1795.72 1466.28L1602.69 1518.6L1641.41 1661.48L1834.45 1609.16L2027.48 1556.85L1988.76 1413.96L1795.72 1466.28ZM1834.45 1609.16L1759.44 1423.76C1760.48 1423.34 1759.44 1423.8 1755.44 1425.09C1751.64 1426.31 1746.29 1427.93 1739.1 1429.92L1792.65 1622.62L1846.19 1815.32C1866.86 1809.58 1889.3 1802.72 1909.45 1794.57L1834.45 1609.16ZM1792.65 1622.62L1738.34 1430.14C1737.15 1430.47 1729.03 1432.45 1710.99 1433.86L1726.64 1633.25L1742.29 1832.64C1776.61 1829.94 1812.49 1824.83 1846.96 1815.1L1792.65 1622.62ZM1726.64 1633.25L1710.3 1433.92C1687.85 1435.76 1674.54 1432.93 1666.97 1430.26L1600.43 1618.87L1533.89 1807.48C1602.14 1831.56 1672.96 1838.32 1742.97 1832.58L1726.64 1633.25ZM1600.43 1618.87L1668.44 1430.79C1667.4 1430.41 1666.94 1430.17 1666.92 1430.16C1666.9 1430.15 1666.96 1430.18 1667.09 1430.26C1667.21 1430.34 1667.38 1430.45 1667.57 1430.59C1667.77 1430.73 1667.96 1430.89 1668.15 1431.05C1668.34 1431.21 1668.5 1431.36 1668.62 1431.49C1668.74 1431.61 1668.81 1431.69 1668.83 1431.7C1668.84 1431.72 1668.78 1431.65 1668.66 1431.49L1508.28 1550.98L1347.91 1670.48C1395.44 1734.27 1458.64 1780.27 1532.42 1806.95L1600.43 1618.87ZM1508.28 1550.98L1669.52 1432.65C1671.9 1435.89 1672.44 1437.91 1672.15 1437C1671.77 1435.81 1670.44 1430.93 1669.99 1421L1470.2 1430.08L1270.41 1439.16C1273.97 1517.61 1295.23 1598.72 1347.05 1669.32L1508.28 1550.98ZM1470.2 1430.08L1669.93 1419.62L1629.73 652.602L1430 663.069L1230.28 673.537L1270.47 1440.55L1470.2 1430.08ZM1874.49 1614.75L1674.76 1625.21C1680.54 1735.52 1774.65 1820.25 1884.96 1814.47L1874.49 1614.75ZM1833.38 830.369L1822.92 630.643C1712.61 636.424 1627.88 730.531 1633.66 840.836L1833.38 830.369ZM2018.24 820.681L2217.97 810.214C2212.19 699.908 2118.08 615.174 2007.78 620.955L2018.24 820.681ZM2059.35 1605.06L2069.82 1804.79C2180.12 1799 2264.86 1704.9 2259.08 1594.59L2059.35 1605.06ZM1843.39 689.027L1714.58 842.032C1715.03 842.404 1715.47 842.774 1715.92 843.143L1843.39 689.027ZM1835.95 547.063L1978.83 687.01C1979.23 686.597 1979.63 686.183 1980.03 685.766L1835.95 547.063ZM1987.1 539.141L1857.06 691.095C1857.91 691.823 1858.77 692.543 1859.63 693.257L1987.1 539.141ZM1994.54 681.105L2138.55 819.89C2138.58 819.863 2138.6 819.836 2138.63 819.808L1994.54 681.105ZM1874.49 1614.75L2074.22 1604.28L2033.11 819.902L1833.38 830.369L1633.66 840.836L1674.76 1625.21L1874.49 1614.75ZM1833.38 830.369L1843.85 1030.1L2028.71 1020.41L2018.24 820.681L2007.78 620.955L1822.92 630.643L1833.38 830.369ZM2018.24 820.681L1818.52 831.148L1859.62 1615.53L2059.35 1605.06L2259.08 1594.59L2217.97 810.214L2018.24 820.681ZM2059.35 1605.06L2048.88 1405.33L1864.02 1415.02L1874.49 1614.75L1884.96 1814.47L2069.82 1804.79L2059.35 1605.06ZM1920.49 714.174L1910.02 514.448C1917.84 514.038 1928.85 514.844 1941.27 518.895C1953.76 522.969 1963.77 529.052 1970.85 534.911L1843.39 689.027L1715.92 843.143C1777.57 894.137 1852.78 917.997 1930.96 913.9L1920.49 714.174ZM1843.39 689.027L1972.19 536.022C1979.18 541.907 1988.5 551.965 1996.07 566.797C2003.75 581.836 2007.08 596.826 2007.73 609.237L1808 619.704L1608.28 630.171C1612.77 715.953 1652.39 789.674 1714.58 842.032L1843.39 689.027ZM1808 619.704L2007.73 609.237C2008.35 621.11 2006.74 636.328 2000.56 652.407C1994.42 668.359 1985.83 679.863 1978.83 687.01L1835.95 547.063L1693.06 407.115C1635.02 466.376 1603.8 544.678 1608.28 630.171L1808 619.704ZM1835.95 547.063L1980.03 685.766C1973.72 692.322 1964.38 699.608 1952.13 705.166C1939.92 710.704 1928.68 712.777 1920.44 713.209L1909.97 513.483L1899.5 313.757C1820.29 317.909 1747.62 350.431 1691.86 408.359L1835.95 547.063ZM1909.97 513.483L1920.44 713.209C1912.67 713.616 1901.33 712.83 1888.34 708.509C1875.23 704.148 1864.63 697.575 1857.06 691.095L1987.1 539.141L2117.14 387.186C2054.93 333.953 1978.44 309.62 1899.5 313.757L1909.97 513.483ZM1987.1 539.141L1859.63 693.257C1851.92 686.881 1842.17 676.338 1834.4 661.115C1826.57 645.77 1823.38 630.804 1822.76 618.931L2022.48 608.464L2222.21 597.997C2217.73 512.503 2178.49 437.894 2114.57 385.025L1987.1 539.141ZM2022.48 608.464L1822.76 618.931C1822.11 606.52 1823.85 591.264 1829.91 575.505C1835.89 559.962 1844.12 548.985 1850.45 542.402L1994.54 681.105L2138.63 819.808C2195.01 761.237 2226.7 683.779 2222.21 597.997L2022.48 608.464ZM1994.54 681.105L1850.53 542.321C1857.52 535.073 1867.34 527.626 1879.67 522.124C1891.85 516.683 1902.67 514.833 1910.02 514.448L1920.49 714.174L1930.96 913.9C2008.85 909.817 2082.02 878.55 2138.55 819.89L1994.54 681.105ZM2287.31 1556.76L2191.49 1732.31C2191.65 1732.39 2191.81 1732.48 2191.97 1732.57L2287.31 1556.76ZM2150.65 1421.05L1976.03 1518.56C1976.25 1518.95 1976.47 1519.34 1976.69 1519.73L2150.65 1421.05ZM2129.59 999.701L2312.73 1080.07C2312.79 1079.93 2312.85 1079.8 2312.91 1079.66L2129.59 999.701ZM2251.81 849.918L2364.72 1014.99C2364.82 1014.93 2364.91 1014.86 2365.01 1014.8L2251.81 849.918ZM2619.14 814.281L2542.27 998.92C2542.78 999.133 2543.3 999.344 2543.81 999.554L2619.14 814.281ZM2742.27 906.656L2583.66 1028.49C2583.81 1028.68 2583.96 1028.88 2584.11 1029.08L2742.27 906.656ZM2800.07 1052.13L2810.54 1251.85C2866.01 1248.94 2917.78 1223.1 2953.43 1180.5C2989.09 1137.91 3005.42 1082.4 2998.52 1027.29L2800.07 1052.13ZM2623.38 1061.39L2429.08 1108.8C2451.87 1202.18 2537.86 1266.14 2633.85 1261.11L2623.38 1061.39ZM2567.37 969.589L2436.48 1120.81C2437.14 1121.38 2437.8 1121.95 2438.47 1122.51L2567.37 969.589ZM2360.66 972.742L2484.02 1130.16C2484.43 1129.84 2484.85 1129.51 2485.26 1129.18L2360.66 972.742ZM2298.31 1063.06L2110.31 994.824C2110.14 995.304 2109.96 995.785 2109.79 996.266L2298.31 1063.06ZM2312.65 1336.78L2131.61 1421.77C2131.7 1421.96 2131.79 1422.15 2131.88 1422.34L2312.65 1336.78ZM2383.16 1421.67L2273.32 1588.8C2274.07 1589.3 2274.83 1589.79 2275.59 1590.28L2383.16 1421.67ZM2557.59 1427.89L2652.91 1603.71C2653.3 1603.5 2653.69 1603.29 2654.07 1603.08L2557.59 1427.89ZM2609.85 1379.58L2443.17 1269.04L2443.17 1269.04L2609.85 1379.58ZM2636.2 1305.99L2625.74 1106.27C2530.01 1111.28 2451.3 1183.52 2438.11 1278.47L2636.2 1305.99ZM2812.89 1296.73L3012.82 1302.18C3014.34 1246.39 2992.48 1192.51 2952.52 1153.55C2912.57 1114.58 2858.16 1094.09 2802.42 1097.01L2812.89 1296.73ZM2771.6 1446.88L2943.78 1548.64C2943.9 1548.43 2944.03 1548.22 2944.15 1548.01L2771.6 1446.88ZM2661.44 1553.02L2758.65 1727.81C2758.98 1727.62 2759.31 1727.44 2759.63 1727.26L2661.44 1553.02ZM2491.73 1597.76L2481.26 1398.04C2432.75 1400.58 2402.58 1391.75 2382.66 1380.94L2287.31 1556.76L2191.97 1732.57C2288 1784.65 2394.11 1803.15 2502.2 1797.49L2491.73 1597.76ZM2287.31 1556.76L2383.14 1381.2C2359.32 1368.21 2340.35 1350.11 2324.61 1322.37L2150.65 1421.05L1976.69 1519.73C2027.9 1610.01 2100.04 1682.39 2191.49 1732.31L2287.31 1556.76ZM2150.65 1421.05L2325.27 1323.54C2309.35 1295.03 2297.24 1256.44 2294.41 1202.55L2094.69 1213.01L1894.96 1223.48C1900.45 1328.24 1925.65 1428.34 1976.03 1518.56L2150.65 1421.05ZM2094.69 1213.01L2294.41 1202.55C2291.6 1148.82 2299.77 1109.61 2312.73 1080.07L2129.59 999.701L1946.45 919.334C1904.52 1014.88 1889.43 1117.88 1894.96 1223.48L2094.69 1213.01ZM2129.59 999.701L2312.91 1079.66C2326.08 1049.47 2343.18 1029.73 2364.72 1014.99L2251.81 849.918L2138.89 684.842C2052.33 744.049 1987.96 824.16 1946.27 919.743L2129.59 999.701ZM2251.81 849.918L2365.01 1014.8C2384.33 1001.53 2412.83 990.035 2458.73 987.629L2448.26 787.903L2437.79 588.177C2330.49 593.801 2228.02 623.646 2138.61 685.036L2251.81 849.918ZM2448.26 787.903L2458.73 987.629C2497.6 985.592 2523.98 991.303 2542.27 998.92L2619.14 814.281L2696 629.641C2613.79 595.416 2526.25 583.542 2437.79 588.177L2448.26 787.903ZM2619.14 814.281L2543.81 999.554C2563.39 1007.51 2575 1017.22 2583.66 1028.49L2742.27 906.656L2900.88 784.827C2846.52 714.054 2776.04 662.175 2694.46 629.008L2619.14 814.281ZM2742.27 906.656L2584.11 1029.08C2591.46 1038.57 2598.55 1052.45 2601.62 1076.97L2800.07 1052.13L2998.52 1027.29C2987.5 939.199 2956.05 856.099 2900.42 784.232L2742.27 906.656ZM2800.07 1052.13L2789.61 852.4L2612.92 861.66L2623.38 1061.39L2633.85 1261.11L2810.54 1251.85L2800.07 1052.13ZM2623.38 1061.39L2817.68 1013.97C2798.96 937.264 2758.4 869.042 2696.27 816.669L2567.37 969.589L2438.47 1122.51C2436.59 1120.93 2434.03 1118.19 2431.81 1114.56C2429.64 1111 2429.04 1108.63 2429.08 1108.8L2623.38 1061.39ZM2567.37 969.589L2698.25 818.365C2623.34 753.528 2532.84 732.719 2448.16 737.157L2458.63 936.883L2469.1 1136.61C2472.44 1136.43 2469.15 1137.09 2461.65 1134.83C2453.51 1132.38 2444.41 1127.68 2436.48 1120.81L2567.37 969.589ZM2458.63 936.883L2448.16 737.157C2372.06 741.146 2298.68 766.414 2236.05 816.302L2360.66 972.742L2485.26 1129.18C2482.42 1131.45 2478.64 1133.65 2474.54 1135.15C2470.57 1136.6 2468.37 1136.65 2469.1 1136.61L2458.63 936.883ZM2360.66 972.742L2237.29 815.319C2175.47 863.767 2134.84 927.229 2110.31 994.824L2298.31 1063.06L2486.31 1131.3C2488.19 1126.1 2489.43 1124.51 2489 1125.13C2488.8 1125.43 2488.27 1126.15 2487.36 1127.12C2486.45 1128.09 2485.32 1129.14 2484.02 1130.16L2360.66 972.742ZM2298.31 1063.06L2109.79 996.266C2085.19 1065.69 2078.45 1138.86 2082.21 1210.59L2281.94 1200.13L2481.66 1189.66C2479.89 1155.86 2484.06 1137.65 2486.83 1129.85L2298.31 1063.06ZM2281.94 1200.13L2082.21 1210.59C2086 1282.78 2100.29 1355.06 2131.61 1421.77L2312.65 1336.78L2493.69 1251.78C2489.66 1243.19 2483.48 1224.37 2481.66 1189.66L2281.94 1200.13ZM2312.65 1336.78L2131.88 1422.34C2162.46 1486.94 2208.26 1546.05 2273.32 1588.8L2383.16 1421.67L2493 1254.53C2494.22 1255.33 2495.26 1256.15 2496.07 1256.88C2496.88 1257.61 2497.3 1258.1 2497.38 1258.2C2497.55 1258.4 2495.95 1256.54 2493.43 1251.21L2312.65 1336.78ZM2383.16 1421.67L2275.59 1590.28C2343.74 1633.76 2419.88 1650.74 2495.83 1646.76L2485.37 1447.04L2474.9 1247.31C2473.48 1247.38 2475.24 1247.13 2479.14 1248.09C2483.21 1249.11 2487.33 1250.89 2490.73 1253.06L2383.16 1421.67ZM2485.37 1447.04L2495.83 1646.76C2548.43 1644 2602.26 1631.17 2652.91 1603.71L2557.59 1427.89L2462.27 1252.06C2466.4 1249.83 2470.02 1248.54 2472.6 1247.86C2475.09 1247.2 2476.03 1247.25 2474.9 1247.31L2485.37 1447.04ZM2557.59 1427.89L2654.07 1603.08C2704.03 1575.56 2745.37 1537.1 2776.52 1490.12L2609.85 1379.58L2443.17 1269.04C2444.85 1266.5 2447.37 1263.36 2450.81 1260.18C2454.26 1256.99 2457.84 1254.5 2461.1 1252.7L2557.59 1427.89ZM2609.85 1379.58L2776.52 1490.12C2809.28 1440.72 2826.91 1386.7 2834.3 1333.52L2636.2 1305.99L2438.11 1278.47C2437.82 1280.55 2437.65 1280.3 2438.35 1278.36C2439.08 1276.32 2440.55 1272.98 2443.17 1269.04L2609.85 1379.58ZM2636.2 1305.99L2646.67 1505.72L2823.36 1496.46L2812.89 1296.73L2802.42 1097.01L2625.74 1106.27L2636.2 1305.99ZM2812.89 1296.73L2612.97 1291.29C2612.29 1316.22 2606.61 1332.86 2599.05 1345.76L2771.6 1446.88L2944.15 1548.01C2988.61 1472.15 3010.46 1388.7 3012.82 1302.18L2812.89 1296.73ZM2771.6 1446.88L2599.43 1345.12C2592.42 1356.98 2582.1 1368.16 2563.24 1378.79L2661.44 1553.02L2759.63 1727.26C2835.61 1684.44 2898.73 1624.86 2943.78 1548.64L2771.6 1446.88ZM2661.44 1553.02L2564.23 1378.24C2548.49 1386.99 2522.89 1395.85 2481.26 1398.04L2491.73 1597.76L2502.2 1797.49C2591.98 1792.78 2679.52 1771.82 2758.65 1727.81L2661.44 1553.02ZM3033.69 1307.18L2833.99 1318.1C2838.48 1400.06 2892.57 1470.95 2970.43 1496.91C3048.29 1522.87 3134.11 1498.63 3186.88 1435.77L3033.69 1307.18ZM3021.49 1084.05L3011.02 884.322C2957.97 887.102 2908.21 910.873 2872.71 950.392C2837.21 989.91 2818.89 1041.93 2821.79 1094.97L3021.49 1084.05ZM3051.11 1082.5L3061.57 1282.22C3118.4 1279.24 3171.27 1252.2 3206.94 1207.86L3051.11 1082.5ZM3316.48 752.643L3306.01 552.917C3249.19 555.895 3196.32 582.939 3160.65 627.275L3316.48 752.643ZM3532.49 741.323L3688.08 866.993C3737.68 805.579 3746.52 720.732 3710.64 650.413C3674.75 580.095 3600.86 537.465 3522.02 541.597L3532.49 741.323ZM3205.98 1145.56L3216.45 1345.28C3273.14 1342.31 3325.9 1315.39 3361.57 1271.23L3205.98 1145.56ZM3167.68 1147.56L3157.22 947.837C3101.84 950.739 3050.15 976.503 3014.5 1018.97L3167.68 1147.56ZM2878.07 1562.15L2678.35 1572.62C2684.13 1682.92 2778.24 1767.66 2888.54 1761.88L2878.07 1562.15ZM2823.26 516.314L2812.8 316.588C2702.49 322.369 2617.76 416.476 2623.54 526.781L2823.26 516.314ZM3008.13 506.626L3207.85 496.159C3202.07 385.853 3107.96 301.119 2997.66 306.9L3008.13 506.626ZM3062.94 1552.46L3073.4 1752.19C3183.71 1746.41 3268.44 1652.3 3262.66 1542L3062.94 1552.46ZM3370.35 1536.35L3214 1661.06C3254.24 1711.52 3316.37 1739.46 3380.82 1736.08L3370.35 1536.35ZM3096.32 1192.78L2944.77 1062.26C2882.02 1135.12 2880 1242.32 2939.96 1317.49L3096.32 1192.78ZM3214.09 1056.03L3369.88 930.608C3332.64 884.357 3276.78 857.043 3217.41 856.059C3158.04 855.075 3101.3 880.522 3062.55 925.513L3214.09 1056.03ZM3591.47 1524.76L3601.94 1724.49C3676.94 1720.56 3743.42 1674.94 3774.06 1606.37C3804.71 1537.8 3794.36 1457.84 3747.26 1399.34L3591.47 1524.76ZM3033.69 1307.18L3233.4 1296.26L3221.19 1073.12L3021.49 1084.05L2821.79 1094.97L2833.99 1318.1L3033.69 1307.18ZM3021.49 1084.05L3031.96 1283.77L3061.57 1282.22L3051.11 1082.5L3040.64 882.769L3011.02 884.322L3021.49 1084.05ZM3051.11 1082.5L3206.94 1207.86L3472.31 878.012L3316.48 752.643L3160.65 627.275L2895.28 957.127L3051.11 1082.5ZM3316.48 752.643L3326.95 952.369L3542.96 941.049L3532.49 741.323L3522.02 541.597L3306.01 552.917L3316.48 752.643ZM3532.49 741.323L3376.9 615.653L3050.4 1019.89L3205.98 1145.56L3361.57 1271.23L3688.08 866.993L3532.49 741.323ZM3205.98 1145.56L3195.52 945.83L3157.22 947.837L3167.68 1147.56L3178.15 1347.29L3216.45 1345.28L3205.98 1145.56ZM3167.68 1147.56L3014.5 1018.97L2880.51 1178.59L3033.69 1307.18L3186.88 1435.77L3320.87 1276.15L3167.68 1147.56ZM2878.07 1562.15L3077.8 1551.68L3022.99 505.847L2823.26 516.314L2623.54 526.781L2678.35 1572.62L2878.07 1562.15ZM2823.26 516.314L2833.73 716.04L3018.59 706.352L3008.13 506.626L2997.66 306.9L2812.8 316.588L2823.26 516.314ZM3008.13 506.626L2808.4 517.093L2863.21 1562.93L3062.94 1552.46L3262.66 1542L3207.85 496.159L3008.13 506.626ZM3062.94 1552.46L3052.47 1352.74L2867.61 1362.43L2878.07 1562.15L2888.54 1761.88L3073.4 1752.19L3062.94 1552.46ZM3370.35 1536.35L3526.71 1411.64L3252.67 1068.07L3096.32 1192.78L2939.96 1317.49L3214 1661.06L3370.35 1536.35ZM3096.32 1192.78L3247.86 1323.3L3365.64 1186.55L3214.09 1056.03L3062.55 925.513L2944.77 1062.26L3096.32 1192.78ZM3214.09 1056.03L3058.31 1181.45L3435.69 1650.19L3591.47 1524.76L3747.26 1399.34L3369.88 930.608L3214.09 1056.03ZM3591.47 1524.76L3581 1325.04L3359.89 1336.63L3370.35 1536.35L3380.82 1736.08L3601.94 1724.49L3591.47 1524.76ZM3705.56 1484.99L3614.3 1662.95C3614.72 1663.17 3615.14 1663.38 3615.56 1663.59L3705.56 1484.99ZM3566.99 1351.94L3393.48 1451.41C3393.55 1451.54 3393.63 1451.67 3393.7 1451.8L3566.99 1351.94ZM3544.64 925.541L3361.68 844.771C3361.62 844.906 3361.56 845.04 3361.5 845.174L3544.64 925.541ZM3666.86 775.758L3780.22 940.526C3780.47 940.358 3780.71 940.189 3780.95 940.02L3666.86 775.758ZM3997.83 730.249L3939.17 921.453C3939.77 921.639 3940.38 921.822 3940.99 922.002L3997.83 730.249ZM4115.96 795.747L3983.69 945.762C3983.95 945.988 3984.21 946.213 3984.46 946.438L4115.96 795.747ZM4201.08 915.206L4018.17 996.089C4018.23 996.228 4018.29 996.366 4018.35 996.505L4201.08 915.206ZM4241.96 1148.1L4252.43 1347.83C4362.74 1342.05 4447.47 1247.94 4441.69 1137.63L4241.96 1148.1ZM3599.04 1181.8L3399.31 1192.26C3405.09 1302.57 3499.2 1387.3 3609.51 1381.52L3599.04 1181.8ZM3592.51 1057.19L3582.04 857.468C3471.74 863.249 3387 957.356 3392.78 1067.66L3592.51 1057.19ZM4058.23 1032.79L4068.7 1232.51C4122 1229.72 4171.98 1205.73 4207.5 1165.9C4243.03 1126.06 4261.16 1073.67 4257.85 1020.4L4058.23 1032.79ZM4030.3 939.518L3859.26 1043.18C3859.44 1043.47 3859.62 1043.76 3859.79 1044.05L4030.3 939.518ZM3964.04 876.934L3869.92 1053.41C3870.25 1053.58 3870.58 1053.76 3870.92 1053.93L3964.04 876.934ZM3771.71 890.599L3887.13 1053.93C3887.6 1053.6 3888.06 1053.27 3888.51 1052.94L3771.71 890.599ZM3708.56 965.597L3527.86 879.876C3527.74 880.125 3527.62 880.376 3527.5 880.626L3708.56 965.597ZM3689.61 1063.37L3489.79 1071.9C3489.82 1072.54 3489.85 1073.19 3489.89 1073.84L3689.61 1063.37ZM3726.49 1288.28L3553.36 1388.41C3553.5 1388.65 3553.64 1388.9 3553.78 1389.14L3726.49 1288.28ZM3800.36 1359.17L3709.27 1537.22C3709.78 1537.48 3710.28 1537.74 3710.79 1538L3800.36 1359.17ZM3979.33 1364.13L4054.16 1549.61C4055.02 1549.26 4055.87 1548.91 4056.73 1548.55L3979.33 1364.13ZM4067.56 1269.38L4079.47 1069.74C3987.62 1064.26 3903.88 1122.15 3876.57 1210.02L4067.56 1269.38ZM4241.18 1279.74L4437.88 1315.95C4448.25 1259.6 4433.96 1201.5 4398.62 1156.4C4363.28 1111.29 4310.29 1083.51 4253.09 1080.1L4241.18 1279.74ZM4185.14 1402.5L4029.69 1276.67C4029.66 1276.7 4029.64 1276.73 4029.62 1276.76L4185.14 1402.5ZM4072.83 1487.25L4154.92 1669.63C4155.29 1669.46 4155.67 1669.29 4156.05 1669.11L4072.83 1487.25ZM3911.89 1523.33L3901.42 1323.61C3850.79 1326.26 3817.87 1317.62 3795.57 1306.38L3705.56 1484.99L3615.56 1663.59C3711.07 1711.72 3815.7 1728.65 3922.35 1723.06L3911.89 1523.33ZM3705.56 1484.99L3796.83 1307.02C3773.55 1295.09 3755.41 1278.34 3740.28 1252.09L3566.99 1351.94L3393.7 1451.8C3446.17 1542.85 3520.41 1614.8 3614.3 1662.95L3705.56 1484.99ZM3566.99 1351.94L3740.51 1252.48C3725.2 1225.79 3712.54 1187.1 3709.54 1129.92L3509.82 1140.39L3310.09 1150.85C3315.69 1257.76 3341.15 1360.12 3393.48 1451.41L3566.99 1351.94ZM3509.82 1140.39L3709.54 1129.92C3706.65 1074.72 3714.97 1035.1 3727.79 1005.91L3544.64 925.541L3361.5 845.174C3319.42 941.069 3304.53 1044.68 3310.09 1150.85L3509.82 1140.39ZM3544.64 925.541L3727.61 1006.31C3741.27 975.376 3758.75 955.299 3780.22 940.526L3666.86 775.758L3553.49 610.99C3467.55 670.122 3403.56 749.9 3361.68 844.771L3544.64 925.541ZM3666.86 775.758L3780.95 940.02C3799.78 926.944 3826.89 915.927 3870.21 913.657L3859.74 713.931L3849.27 514.205C3742.8 519.785 3641.32 549.986 3552.76 611.496L3666.86 775.758ZM3859.74 713.931L3870.21 913.657C3896.57 912.275 3919.1 915.297 3939.17 921.453L3997.83 730.249L4056.49 539.045C3989.12 518.377 3919.6 510.519 3849.27 514.205L3859.74 713.931ZM3997.83 730.249L3940.99 922.002C3956.93 926.727 3970.61 934.229 3983.69 945.762L4115.96 795.747L4248.23 645.732C4191.88 596.043 4126.81 559.879 4054.67 538.496L3997.83 730.249ZM4115.96 795.747L3984.46 946.438C3994.36 955.076 4006.51 969.723 4018.17 996.089L4201.08 915.206L4384 834.323C4352.28 762.597 4307.68 697.605 4247.46 645.056L4115.96 795.747ZM4201.08 915.206L4018.35 996.505C4027.63 1017.37 4036.59 1050.78 4039.27 1101.89L4238.99 1091.42L4438.72 1080.95C4434.19 994.52 4417.87 910.453 4383.81 833.907L4201.08 915.206ZM4238.99 1091.42L4039.27 1101.89L4042.24 1158.57L4241.96 1148.1L4441.69 1137.63L4438.72 1080.95L4238.99 1091.42ZM4241.96 1148.1L4231.5 948.376L3588.57 982.07L3599.04 1181.8L3609.51 1381.52L4252.43 1347.83L4241.96 1148.1ZM3599.04 1181.8L3798.76 1171.33L3792.23 1046.73L3592.51 1057.19L3392.78 1067.66L3399.31 1192.26L3599.04 1181.8ZM3592.51 1057.19L3602.98 1256.92L4068.7 1232.51L4058.23 1032.79L4047.77 833.061L3582.04 857.468L3592.51 1057.19ZM4058.23 1032.79L4257.85 1020.4C4253.89 956.618 4236.41 893.06 4200.81 834.985L4030.3 939.518L3859.79 1044.05C3859.28 1043.21 3858.86 1042.39 3858.54 1041.67C3858.22 1040.95 3858.06 1040.47 3858.01 1040.3C3857.9 1039.93 3858.38 1041.34 3858.62 1045.17L4058.23 1032.79ZM4030.3 939.518L4201.34 835.861C4166.32 778.064 4117.46 731.663 4057.16 699.937L3964.04 876.934L3870.92 1053.93C3869.19 1053.02 3866.68 1051.38 3864.08 1048.93C3861.49 1046.48 3859.94 1044.3 3859.26 1043.18L4030.3 939.518ZM3964.04 876.934L4058.15 700.463C3994.31 666.415 3925.84 654.595 3859.37 658.078L3869.84 857.804L3880.31 1057.53C3882.93 1057.39 3882.62 1057.7 3880.14 1057.19C3877.5 1056.66 3873.83 1055.49 3869.92 1053.41L3964.04 876.934ZM3869.84 857.804L3859.37 658.078C3787.71 661.834 3717.07 683.521 3654.9 728.254L3771.71 890.599L3888.51 1052.94C3885.79 1054.91 3882.83 1056.35 3880.35 1057.18C3878.03 1057.95 3877.69 1057.67 3880.31 1057.53L3869.84 857.804ZM3771.71 890.599L3656.28 727.27C3600.69 766.552 3557.1 818.228 3527.86 879.876L3708.56 965.597L3889.25 1051.32C3889.34 1051.14 3889.29 1051.26 3889.08 1051.6C3888.86 1051.94 3888.55 1052.37 3888.17 1052.82C3887.79 1053.28 3887.44 1053.63 3887.18 1053.86C3886.93 1054.09 3886.88 1054.1 3887.13 1053.93L3771.71 890.599ZM3708.56 965.597L3527.5 880.626C3498.9 941.565 3487 1006.46 3489.79 1071.9L3689.61 1063.37L3889.43 1054.84C3889.31 1052.01 3889.55 1050.76 3889.57 1050.66C3889.59 1050.56 3889.6 1050.57 3889.57 1050.64C3889.55 1050.7 3889.55 1050.69 3889.61 1050.57L3708.56 965.597ZM3689.61 1063.37L3489.89 1073.84L3495.59 1182.61L3695.31 1172.14L3895.04 1161.67L3889.34 1052.9L3689.61 1063.37ZM3695.31 1172.14L3495.59 1182.61C3499.24 1252.27 3515.75 1323.38 3553.36 1388.41L3726.49 1288.28L3899.63 1188.16C3900.44 1189.57 3896.17 1183.25 3895.04 1161.67L3695.31 1172.14ZM3726.49 1288.28L3553.78 1389.14C3590.4 1451.84 3642.6 1503.12 3709.27 1537.22L3800.36 1359.17L3891.45 1181.12C3893.09 1181.96 3895.24 1183.4 3897.22 1185.31C3899.15 1187.16 3899.68 1188.24 3899.2 1187.42L3726.49 1288.28ZM3800.36 1359.17L3710.79 1538C3777.41 1571.36 3848.38 1582.53 3917.36 1578.92L3906.89 1379.19L3896.43 1179.47C3890.45 1179.78 3887.56 1179.3 3887.07 1179.21C3886.73 1179.14 3887.95 1179.36 3889.92 1180.35L3800.36 1359.17ZM3906.89 1379.19L3917.36 1578.92C3962.73 1576.54 4009.13 1567.77 4054.16 1549.61L3979.33 1364.13L3904.5 1178.66C3906.73 1177.76 3904.85 1179.03 3896.43 1179.47L3906.89 1379.19ZM3979.33 1364.13L4056.73 1548.55C4101.8 1529.63 4143.19 1502.15 4178.36 1465.6L4034.22 1326.95L3890.08 1188.3C3892.23 1186.07 3894.58 1184.11 3896.91 1182.52C3899.23 1180.96 3901.03 1180.09 3901.93 1179.71L3979.33 1364.13ZM4034.22 1326.95L4178.36 1465.6C4216.77 1425.67 4243.02 1378.7 4258.55 1328.74L4067.56 1269.38L3876.57 1210.02C3877.21 1207.97 3878.51 1204.59 3880.9 1200.45C3883.32 1196.27 3886.42 1192.1 3890.08 1188.3L4034.22 1326.95ZM4067.56 1269.38L4055.65 1469.03L4229.27 1479.39L4241.18 1279.74L4253.09 1080.1L4079.47 1069.74L4067.56 1269.38ZM4241.18 1279.74L4044.49 1243.53C4041.88 1257.7 4037.01 1267.63 4029.69 1276.67L4185.14 1402.5L4340.6 1528.33C4390.99 1466.08 4423.48 1394.17 4437.88 1315.95L4241.18 1279.74ZM4185.14 1402.5L4029.62 1276.76C4022.8 1285.19 4011.33 1295.45 3989.62 1305.38L4072.83 1487.25L4156.05 1669.11C4227.02 1636.64 4290.42 1590.4 4340.67 1528.25L4185.14 1402.5ZM4072.83 1487.25L3990.75 1304.87C3971.01 1313.75 3942.45 1321.46 3901.42 1323.61L3911.89 1523.33L3922.35 1723.06C4003.2 1718.82 4081.94 1702.47 4154.92 1669.63L4072.83 1487.25ZM4315.6 1486.81L4115.87 1497.28C4121.65 1607.59 4215.76 1692.32 4326.06 1686.54L4315.6 1486.81ZM4274.49 702.436L4264.02 502.71C4153.72 508.491 4068.98 602.598 4074.76 712.903L4274.49 702.436ZM4453.73 693.042L4653.46 682.575C4647.68 572.27 4553.57 487.536 4443.26 493.317L4453.73 693.042ZM4460.58 823.772L4260.86 834.239C4266.64 944.545 4360.74 1029.28 4471.05 1023.5L4460.58 823.772ZM4468.75 823.344L4479.22 1023.07C4566.36 1018.5 4640.48 957.973 4662.36 873.506L4468.75 823.344ZM4536.8 714.804L4660.53 871.938C4660.63 871.859 4660.73 871.781 4660.83 871.702L4536.8 714.804ZM4689.15 670.975L4683.44 870.894C4685.33 870.948 4687.22 870.975 4689.1 870.975L4689.15 670.975ZM4721.51 672.864L4921.23 662.397C4916.24 567.191 4844.75 488.743 4750.41 474.964L4721.51 672.864ZM4730.42 842.915L4674.69 1034.99C4736.87 1053.04 4803.94 1039.86 4854.68 999.631C4905.41 959.404 4933.53 897.106 4930.15 832.448L4730.42 842.915ZM4692.77 837.719L4674.88 1036.92C4676.38 1037.05 4677.87 1037.17 4679.36 1037.27L4692.77 837.719ZM4554.32 863.409L4658.23 1034.3C4658.48 1034.14 4658.74 1033.99 4659 1033.83L4554.32 863.409ZM4500.46 1477.13L4510.92 1676.85C4621.23 1671.07 4705.96 1576.96 4700.18 1466.66L4500.46 1477.13ZM4315.6 1486.81L4515.32 1476.35L4474.21 691.969L4274.49 702.436L4074.76 712.903L4115.87 1497.28L4315.6 1486.81ZM4274.49 702.436L4284.96 902.162L4464.2 892.768L4453.73 693.042L4443.26 493.317L4264.02 502.71L4274.49 702.436ZM4453.73 693.042L4254.01 703.51L4260.86 834.239L4460.58 823.772L4660.31 813.305L4653.46 682.575L4453.73 693.042ZM4460.58 823.772L4471.05 1023.5L4479.22 1023.07L4468.75 823.344L4458.29 623.618L4450.12 624.046L4460.58 823.772ZM4468.75 823.344L4662.36 873.506C4663.08 870.747 4663.71 869.073 4664.05 868.271C4664.38 867.487 4664.46 867.447 4664.16 867.925C4663.85 868.418 4663.32 869.168 4662.56 870.012C4661.8 870.858 4661.08 871.51 4660.53 871.938L4536.8 714.804L4413.07 557.671C4341.26 614.216 4296.69 690.035 4275.15 773.182L4468.75 823.344ZM4536.8 714.804L4660.83 871.702C4661.34 871.303 4661.51 871.221 4661.38 871.296C4661.24 871.373 4661.05 871.465 4660.88 871.525C4660.73 871.583 4660.88 871.51 4661.47 871.392C4662.07 871.271 4663.31 871.068 4665.32 870.963L4654.85 671.237L4644.39 471.511C4560.08 475.929 4480.58 504.305 4412.77 557.907L4536.8 714.804ZM4654.85 671.237L4665.32 870.963C4669.06 870.766 4674.98 870.652 4683.44 870.894L4689.15 670.975L4694.86 471.057C4678.02 470.576 4661.07 470.636 4644.39 471.511L4654.85 671.237ZM4689.15 670.975L4689.1 870.975C4692.46 870.976 4694.46 871.06 4695.31 871.11C4695.71 871.133 4695.69 871.139 4695.29 871.1C4694.89 871.062 4693.97 870.965 4692.6 870.764L4721.51 672.864L4750.41 474.964C4728.84 471.813 4707.61 470.98 4689.19 470.975L4689.15 670.975ZM4721.51 672.864L4521.78 683.331L4530.69 853.382L4730.42 842.915L4930.15 832.448L4921.23 662.397L4721.51 672.864ZM4730.42 842.915L4786.15 650.836C4756.38 642.198 4725.82 639.489 4706.17 638.169L4692.77 837.719L4679.36 1037.27C4681.96 1037.44 4683.95 1037.61 4685.42 1037.75C4686.91 1037.9 4687.63 1038 4687.69 1038C4687.79 1038.02 4686.79 1037.88 4684.91 1037.51C4683.94 1037.32 4682.6 1037.04 4680.95 1036.65C4679.31 1036.26 4677.2 1035.72 4674.69 1034.99L4730.42 842.915ZM4692.77 837.719L4710.65 638.52C4685.12 636.229 4659.39 635.609 4633.6 636.961L4644.07 836.687L4654.53 1036.41C4660.06 1036.12 4666.8 1036.19 4674.88 1036.92L4692.77 837.719ZM4644.07 836.687L4633.6 636.961C4569.97 640.296 4507.02 657.744 4449.64 692.99L4554.32 863.409L4659 1033.83C4658.03 1034.42 4657.01 1034.96 4655.98 1035.42C4654.96 1035.87 4654.08 1036.18 4653.43 1036.38C4652.05 1036.79 4652.21 1036.53 4654.53 1036.41L4644.07 836.687ZM4554.32 863.409L4450.41 692.519C4394.28 726.648 4349.07 774.125 4317.99 832.666L4494.64 926.449L4671.29 1020.23C4670.09 1022.5 4668.1 1025.46 4665.28 1028.44C4662.47 1031.4 4659.86 1033.31 4658.23 1034.3L4554.32 863.409ZM4494.64 926.449L4317.99 832.666C4285.03 894.755 4273.15 961.373 4276.56 1026.46L4476.29 1016L4676.02 1005.53C4675.95 1004.2 4676.16 1005.5 4675.49 1008.74C4674.8 1012.1 4673.45 1016.16 4671.29 1020.23L4494.64 926.449ZM4476.29 1016L4276.56 1026.46L4300.73 1487.59L4500.46 1477.13L4700.18 1466.66L4676.02 1005.53L4476.29 1016ZM4500.46 1477.13L4489.99 1277.4L4305.13 1287.09L4315.6 1486.81L4326.06 1686.54L4510.92 1676.85L4500.46 1477.13Z" fill="black" mask="url(#path-3-outside-1_6_4)"/>
<mask id="path-5-outside-2_6_4" maskUnits="userSpaceOnUse" x="3202.14" y="1413.4" width="1619.99" height="728.957" fill="black">
<rect fill="white" x="3202.14" y="1413.4" width="1619.99" height="728.957"/>
<path d="M3352.08 1562.39L3442.61 1563.97L3558.68 1862L3563.47 1862.08L3689.87 1568.28L3780.4 1569.86L3773.27 1978.24L3702.28 1977L3707.18 1696.44L3703.39 1696.37L3585.65 1973.77L3532.61 1972.84L3424.64 1690.91L3420.85 1690.84L3415.94 1972L3344.95 1970.76L3352.08 1562.39ZM4199.83 1781.43C4199.07 1825.44 4190.17 1862.98 4173.14 1894.06C4156.24 1925.02 4133.49 1948.56 4104.88 1964.68C4076.41 1980.8 4044.3 1988.55 4008.54 1987.93C3972.78 1987.31 3940.88 1978.44 3912.86 1961.33C3884.97 1944.08 3863.06 1919.7 3847.12 1888.17C3831.31 1856.52 3823.8 1818.75 3824.56 1774.88C3825.33 1730.88 3834.16 1693.4 3851.06 1662.45C3868.09 1631.37 3890.84 1607.76 3919.31 1591.64C3947.92 1575.51 3980.1 1567.76 4015.86 1568.39C4051.62 1569.01 4083.44 1577.88 4111.34 1594.99C4139.36 1612.1 4161.28 1636.48 4177.08 1668.14C4193.02 1699.67 4200.6 1737.43 4199.83 1781.43ZM4125.46 1780.14C4126 1749.16 4121.6 1722.96 4112.27 1701.52C4103.07 1679.95 4090.06 1663.56 4073.24 1652.37C4056.41 1641.04 4036.9 1635.18 4014.7 1634.79C3992.5 1634.4 3972.8 1639.58 3955.59 1650.31C3938.38 1660.92 3924.74 1676.83 3914.66 1698.07C3904.72 1719.17 3899.48 1745.21 3898.94 1776.18C3898.4 1807.16 3902.73 1833.43 3911.92 1855C3921.26 1876.44 3934.33 1892.82 3951.16 1904.15C3967.98 1915.35 3987.5 1921.14 4009.7 1921.53C4031.9 1921.92 4051.6 1916.81 4068.8 1906.2C4086.01 1895.47 4099.59 1879.55 4109.53 1858.45C4119.61 1837.21 4124.92 1811.11 4125.46 1780.14ZM4250.88 1578.08L4341.41 1579.66L4457.48 1877.68L4462.26 1877.77L4588.66 1583.97L4679.19 1585.55L4672.06 1993.93L4601.08 1992.69L4605.97 1712.13L4602.19 1712.06L4484.45 1989.45L4431.41 1988.53L4323.43 1706.6L4319.64 1706.53L4314.74 1987.69L4243.75 1986.45L4250.88 1578.08Z"/>
</mask>
<path d="M3352.08 1562.39L3442.61 1563.97L3558.68 1862L3563.47 1862.08L3689.87 1568.28L3780.4 1569.86L3773.27 1978.24L3702.28 1977L3707.18 1696.44L3703.39 1696.37L3585.65 1973.77L3532.61 1972.84L3424.64 1690.91L3420.85 1690.84L3415.94 1972L3344.95 1970.76L3352.08 1562.39ZM4199.83 1781.43C4199.07 1825.44 4190.17 1862.98 4173.14 1894.06C4156.24 1925.02 4133.49 1948.56 4104.88 1964.68C4076.41 1980.8 4044.3 1988.55 4008.54 1987.93C3972.78 1987.31 3940.88 1978.44 3912.86 1961.33C3884.97 1944.08 3863.06 1919.7 3847.12 1888.17C3831.31 1856.52 3823.8 1818.75 3824.56 1774.88C3825.33 1730.88 3834.16 1693.4 3851.06 1662.45C3868.09 1631.37 3890.84 1607.76 3919.31 1591.64C3947.92 1575.51 3980.1 1567.76 4015.86 1568.39C4051.62 1569.01 4083.44 1577.88 4111.34 1594.99C4139.36 1612.1 4161.28 1636.48 4177.08 1668.14C4193.02 1699.67 4200.6 1737.43 4199.83 1781.43ZM4125.46 1780.14C4126 1749.16 4121.6 1722.96 4112.27 1701.52C4103.07 1679.95 4090.06 1663.56 4073.24 1652.37C4056.41 1641.04 4036.9 1635.18 4014.7 1634.79C3992.5 1634.4 3972.8 1639.58 3955.59 1650.31C3938.38 1660.92 3924.74 1676.83 3914.66 1698.07C3904.72 1719.17 3899.48 1745.21 3898.94 1776.18C3898.4 1807.16 3902.73 1833.43 3911.92 1855C3921.26 1876.44 3934.33 1892.82 3951.16 1904.15C3967.98 1915.35 3987.5 1921.14 4009.7 1921.53C4031.9 1921.92 4051.6 1916.81 4068.8 1906.2C4086.01 1895.47 4099.59 1879.55 4109.53 1858.45C4119.61 1837.21 4124.92 1811.11 4125.46 1780.14ZM4250.88 1578.08L4341.41 1579.66L4457.48 1877.68L4462.26 1877.77L4588.66 1583.97L4679.19 1585.55L4672.06 1993.93L4601.08 1992.69L4605.97 1712.13L4602.19 1712.06L4484.45 1989.45L4431.41 1988.53L4323.43 1706.6L4319.64 1706.53L4314.74 1987.69L4243.75 1986.45L4250.88 1578.08Z" fill="white"/>
<path d="M3352.08 1562.39L3354.53 1422.41C3277.22 1421.06 3213.45 1482.64 3212.1 1559.94L3352.08 1562.39ZM3442.61 1563.97L3573.07 1513.16C3552.44 1460.21 3501.87 1424.98 3445.05 1423.99L3442.61 1563.97ZM3558.68 1862L3428.23 1912.8C3448.85 1965.75 3499.43 2000.98 3556.24 2001.97L3558.68 1862ZM3563.47 1862.08L3561.02 2002.06C3617.84 2003.05 3669.61 1969.6 3692.07 1917.41L3563.47 1862.08ZM3689.87 1568.28L3692.31 1428.3C3635.5 1427.31 3583.72 1460.76 3561.27 1512.95L3689.87 1568.28ZM3780.4 1569.86L3920.38 1572.31C3921.72 1495 3860.15 1431.23 3782.84 1429.88L3780.4 1569.86ZM3773.27 1978.24L3770.83 2118.22C3848.13 2119.57 3911.9 2057.99 3913.25 1980.68L3773.27 1978.24ZM3702.28 1977L3562.3 1974.56C3560.95 2051.86 3622.53 2115.63 3699.84 2116.98L3702.28 1977ZM3707.18 1696.44L3847.16 1698.88C3848.51 1621.58 3786.93 1557.81 3709.62 1556.46L3707.18 1696.44ZM3703.39 1696.37L3705.83 1556.4C3648.77 1555.4 3596.82 1589.14 3574.52 1641.68L3703.39 1696.37ZM3585.65 1973.77L3583.21 2113.74C3640.27 2114.74 3692.23 2081 3714.52 2028.47L3585.65 1973.77ZM3532.61 1972.84L3401.87 2022.91C3422.3 2076.24 3473.07 2111.82 3530.17 2112.82L3532.61 1972.84ZM3424.64 1690.91L3555.38 1640.84C3534.95 1587.51 3484.18 1551.93 3427.08 1550.93L3424.64 1690.91ZM3420.85 1690.84L3423.29 1550.87C3345.98 1549.52 3282.22 1611.09 3280.87 1688.4L3420.85 1690.84ZM3415.94 1972L3413.5 2111.98C3490.81 2113.33 3554.57 2051.75 3555.92 1974.44L3415.94 1972ZM3344.95 1970.76L3204.98 1968.32C3203.63 2045.63 3265.2 2109.39 3342.51 2110.74L3344.95 1970.76ZM3352.08 1562.39L3349.64 1702.37L3440.17 1703.95L3442.61 1563.97L3445.05 1423.99L3354.53 1422.41L3352.08 1562.39ZM3442.61 1563.97L3312.16 1614.77L3428.23 1912.8L3558.68 1862L3689.14 1811.19L3573.07 1513.16L3442.61 1563.97ZM3558.68 1862L3556.24 2001.97L3561.02 2002.06L3563.47 1862.08L3565.91 1722.1L3561.12 1722.02L3558.68 1862ZM3563.47 1862.08L3692.07 1917.41L3818.47 1623.61L3689.87 1568.28L3561.27 1512.95L3434.86 1806.75L3563.47 1862.08ZM3689.87 1568.28L3687.42 1708.26L3777.95 1709.84L3780.4 1569.86L3782.84 1429.88L3692.31 1428.3L3689.87 1568.28ZM3780.4 1569.86L3640.42 1567.42L3633.29 1975.79L3773.27 1978.24L3913.25 1980.68L3920.38 1572.31L3780.4 1569.86ZM3773.27 1978.24L3775.71 1838.26L3704.72 1837.02L3702.28 1977L3699.84 2116.98L3770.83 2118.22L3773.27 1978.24ZM3702.28 1977L3842.26 1979.44L3847.16 1698.88L3707.18 1696.44L3567.2 1694L3562.3 1974.56L3702.28 1977ZM3707.18 1696.44L3709.62 1556.46L3705.83 1556.4L3703.39 1696.37L3700.95 1836.35L3704.74 1836.42L3707.18 1696.44ZM3703.39 1696.37L3574.52 1641.68L3456.78 1919.07L3585.65 1973.77L3714.52 2028.47L3832.26 1751.07L3703.39 1696.37ZM3585.65 1973.77L3588.1 1833.79L3535.05 1832.86L3532.61 1972.84L3530.17 2112.82L3583.21 2113.74L3585.65 1973.77ZM3532.61 1972.84L3663.35 1922.77L3555.38 1640.84L3424.64 1690.91L3293.9 1740.98L3401.87 2022.91L3532.61 1972.84ZM3424.64 1690.91L3427.08 1550.93L3423.29 1550.87L3420.85 1690.84L3418.41 1830.82L3422.19 1830.89L3424.64 1690.91ZM3420.85 1690.84L3280.87 1688.4L3275.96 1969.56L3415.94 1972L3555.92 1974.44L3560.83 1693.29L3420.85 1690.84ZM3415.94 1972L3418.38 1832.02L3347.4 1830.78L3344.95 1970.76L3342.51 2110.74L3413.5 2111.98L3415.94 1972ZM3344.95 1970.76L3484.93 1973.2L3492.06 1564.83L3352.08 1562.39L3212.1 1559.94L3204.98 1968.32L3344.95 1970.76ZM4173.14 1894.06L4050.36 1826.79C4050.32 1826.86 4050.29 1826.92 4050.25 1826.99L4173.14 1894.06ZM4104.88 1964.68L4036.14 1842.72C4036.06 1842.76 4035.98 1842.81 4035.89 1842.86L4104.88 1964.68ZM3912.86 1961.33L3839.24 2080.41C3839.46 2080.54 3839.68 2080.68 3839.9 2080.81L3912.86 1961.33ZM3847.12 1888.17L3721.86 1950.7C3721.96 1950.91 3722.07 1951.13 3722.18 1951.34L3847.12 1888.17ZM3851.06 1662.45L3728.28 1595.18C3728.24 1595.24 3728.21 1595.31 3728.17 1595.37L3851.06 1662.45ZM3919.31 1591.64L3850.57 1469.67C3850.49 1469.72 3850.4 1469.77 3850.32 1469.82L3919.31 1591.64ZM4111.34 1594.99L4038.14 1714.33C4038.22 1714.38 4038.3 1714.43 4038.38 1714.48L4111.34 1594.99ZM4177.08 1668.14L4051.82 1730.67C4051.92 1730.88 4052.03 1731.09 4052.14 1731.31L4177.08 1668.14ZM4112.27 1701.52L3983.49 1756.43C3983.63 1756.75 3983.77 1757.08 3983.91 1757.4L4112.27 1701.52ZM4073.24 1652.37L3995.03 1768.48C3995.24 1768.63 3995.45 1768.77 3995.67 1768.91L4073.24 1652.37ZM3955.59 1650.31L4029.04 1769.5C4029.26 1769.36 4029.48 1769.23 4029.7 1769.09L3955.59 1650.31ZM3914.66 1698.07L3788.19 1638.04C3788.13 1638.16 3788.07 1638.28 3788.02 1638.4L3914.66 1698.07ZM3911.92 1855L3783.14 1909.91C3783.28 1910.23 3783.42 1910.56 3783.56 1910.88L3911.92 1855ZM3951.16 1904.15L3872.95 2020.27C3873.16 2020.41 3873.38 2020.56 3873.59 2020.7L3951.16 1904.15ZM4068.8 1906.2L4142.26 2025.39C4142.47 2025.25 4142.69 2025.12 4142.91 2024.98L4068.8 1906.2ZM4109.53 1858.45L3983.05 1798.42C3983 1798.54 3982.94 1798.66 3982.88 1798.78L4109.53 1858.45ZM4199.83 1781.43L4059.86 1778.99C4059.39 1805.69 4054.16 1819.84 4050.36 1826.79L4173.14 1894.06L4295.91 1961.33C4326.17 1906.11 4338.74 1845.18 4339.81 1783.88L4199.83 1781.43ZM4173.14 1894.06L4050.25 1826.99C4044.94 1836.71 4040.22 1840.42 4036.14 1842.72L4104.88 1964.68L4173.62 2086.64C4226.76 2056.69 4267.54 2013.32 4296.02 1961.14L4173.14 1894.06ZM4104.88 1964.68L4035.89 1842.86C4031.18 1845.53 4024.13 1848.18 4010.98 1847.95L4008.54 1987.93L4006.09 2127.91C4064.46 2128.93 4121.64 2116.08 4173.88 2086.5L4104.88 1964.68ZM4008.54 1987.93L4010.98 1847.95C3997.84 1847.72 3990.7 1844.82 3985.82 1841.84L3912.86 1961.33L3839.9 2080.81C3891.07 2112.05 3947.72 2126.89 4006.09 2127.91L4008.54 1987.93ZM3912.86 1961.33L3986.48 1842.24C3982.22 1839.61 3977.3 1835.38 3972.06 1825.01L3847.12 1888.17L3722.18 1951.34C3748.81 2004.02 3787.72 2048.56 3839.24 2080.41L3912.86 1961.33ZM3847.12 1888.17L3972.38 1825.64C3968.77 1818.41 3964.07 1803.98 3964.54 1777.33L3824.56 1774.88L3684.58 1772.44C3683.52 1833.52 3693.86 1894.62 3721.86 1950.7L3847.12 1888.17ZM3824.56 1774.88L3964.54 1777.33C3965.01 1750.44 3970.24 1736.31 3973.94 1729.53L3851.06 1662.45L3728.17 1595.37C3698.08 1650.5 3685.65 1711.33 3684.58 1772.44L3824.56 1774.88ZM3851.06 1662.45L3973.84 1729.72C3979.44 1719.49 3984.37 1715.69 3988.3 1713.46L3919.31 1591.64L3850.32 1469.82C3797.32 1499.83 3756.74 1543.24 3728.28 1595.18L3851.06 1662.45ZM3919.31 1591.64L3988.05 1713.6C3993.04 1710.79 4000.27 1708.14 4013.42 1708.37L4015.86 1568.39L4018.3 1428.41C3959.93 1427.39 3902.79 1440.24 3850.57 1469.67L3919.31 1591.64ZM4015.86 1568.39L4013.42 1708.37C4026.57 1708.6 4033.52 1711.49 4038.14 1714.33L4111.34 1594.99L4184.54 1475.65C4133.37 1444.26 4076.67 1429.43 4018.3 1428.41L4015.86 1568.39ZM4111.34 1594.99L4038.38 1714.48C4042.22 1716.82 4046.81 1720.63 4051.82 1730.67L4177.08 1668.14L4302.34 1605.61C4275.74 1552.33 4236.5 1507.38 4184.29 1475.5L4111.34 1594.99ZM4177.08 1668.14L4052.14 1731.31C4055.58 1738.12 4060.32 1752.26 4059.86 1778.99L4199.83 1781.43L4339.81 1783.88C4340.88 1722.6 4330.45 1661.22 4302.02 1604.98L4177.08 1668.14ZM4125.46 1780.14L4265.44 1782.58C4266.22 1737.76 4260.12 1690.41 4240.63 1645.64L4112.27 1701.52L3983.91 1757.4C3983.08 1755.51 3985.78 1760.56 3985.48 1777.69L4125.46 1780.14ZM4112.27 1701.52L4241.05 1646.6C4222.91 1604.05 4193.8 1564.43 4150.8 1535.82L4073.24 1652.37L3995.67 1768.91C3991.5 1766.14 3988.24 1762.96 3985.98 1760.12C3983.82 1757.4 3983.22 1755.8 3983.49 1756.43L4112.27 1701.52ZM4073.24 1652.37L4151.44 1536.25C4110.09 1508.39 4063.71 1495.62 4017.14 1494.81L4014.7 1634.79L4012.26 1774.77C4011.68 1774.76 4009.29 1774.63 4005.72 1773.56C4002.06 1772.46 3998.34 1770.72 3995.03 1768.48L4073.24 1652.37ZM4014.7 1634.79L4017.14 1494.81C3970.58 1494 3923.78 1505.14 3881.48 1531.54L3955.59 1650.31L4029.7 1769.09C4026.31 1771.2 4022.53 1772.82 4018.83 1773.79C4015.23 1774.73 4012.83 1774.78 4012.26 1774.77L4014.7 1634.79ZM3955.59 1650.31L3882.14 1531.13C3838.36 1558.11 3807.93 1596.45 3788.19 1638.04L3914.66 1698.07L4041.14 1758.1C4041.49 1757.35 4040.91 1758.79 4038.76 1761.31C4036.5 1763.94 4033.23 1766.91 4029.04 1769.5L3955.59 1650.31ZM3914.66 1698.07L3788.02 1638.4C3767.34 1682.27 3759.74 1729.14 3758.96 1773.74L3898.94 1776.18L4038.92 1778.63C4039.22 1761.28 4042.1 1756.07 4041.31 1757.74L3914.66 1698.07ZM3898.94 1776.18L3758.96 1773.74C3758.18 1818.38 3764.16 1865.4 3783.14 1909.91L3911.92 1855L4040.7 1800.08C4041.29 1801.45 4038.61 1795.93 4038.92 1778.63L3898.94 1776.18ZM3911.92 1855L3783.56 1910.88C3801.87 1952.94 3830.79 1991.88 3872.95 2020.27L3951.16 1904.15L4029.37 1788.03C4033.15 1790.58 4036.11 1793.47 4038.15 1796.03C4040.1 1798.48 4040.6 1799.84 4040.29 1799.12L3911.92 1855ZM3951.16 1904.15L3873.59 2020.7C3914.88 2048.18 3961.02 2060.7 4007.25 2061.51L4009.7 1921.53L4012.14 1781.55C4012.57 1781.56 4014.81 1781.66 4018.25 1782.68C4021.79 1783.73 4025.43 1785.41 4028.72 1787.6L3951.16 1904.15ZM4009.7 1921.53L4007.25 2061.51C4053.48 2062.31 4100.04 2051.41 4142.26 2025.39L4068.8 1906.2L3995.35 1787.02C3998.72 1784.94 4002.42 1783.39 4005.99 1782.47C4009.46 1781.57 4011.71 1781.54 4012.14 1781.55L4009.7 1921.53ZM4068.8 1906.2L4142.91 2024.98C4186.22 1997.96 4216.53 1959.82 4236.18 1918.12L4109.53 1858.45L3982.88 1798.78C3982.61 1799.36 3983.23 1797.88 3985.37 1795.37C3987.59 1792.76 3990.75 1789.89 3994.7 1787.43L4068.8 1906.2ZM4109.53 1858.45L4236.01 1918.48C4256.9 1874.46 4264.65 1827.44 4265.44 1782.58L4125.46 1780.14L3985.48 1777.69C3985.18 1794.78 3982.32 1799.96 3983.05 1798.42L4109.53 1858.45ZM4250.88 1578.08L4253.32 1438.1C4176.01 1436.75 4112.25 1498.32 4110.9 1575.63L4250.88 1578.08ZM4341.41 1579.66L4471.86 1528.85C4451.24 1475.9 4400.66 1440.67 4343.85 1439.68L4341.41 1579.66ZM4457.48 1877.68L4327.02 1928.49C4347.64 1981.44 4398.22 2016.67 4455.03 2017.66L4457.48 1877.68ZM4462.26 1877.77L4459.82 2017.75C4516.63 2018.74 4568.41 1985.29 4590.87 1933.1L4462.26 1877.77ZM4588.66 1583.97L4591.11 1443.99C4534.3 1443 4482.52 1476.45 4460.06 1528.64L4588.66 1583.97ZM4679.19 1585.55L4819.17 1588C4820.52 1510.69 4758.94 1446.92 4681.64 1445.57L4679.19 1585.55ZM4672.06 1993.93L4669.62 2133.9C4746.93 2135.25 4810.69 2073.68 4812.04 1996.37L4672.06 1993.93ZM4601.08 1992.69L4461.1 1990.24C4459.75 2067.55 4521.33 2131.32 4598.63 2132.67L4601.08 1992.69ZM4605.97 1712.13L4745.95 1714.57C4747.3 1637.26 4685.73 1573.5 4608.42 1572.15L4605.97 1712.13ZM4602.19 1712.06L4604.63 1572.08C4547.57 1571.09 4495.61 1604.83 4473.31 1657.36L4602.19 1712.06ZM4484.45 1989.45L4482.01 2129.43C4539.07 2130.43 4591.02 2096.69 4613.32 2044.15L4484.45 1989.45ZM4431.41 1988.53L4300.67 2038.6C4321.09 2091.93 4371.86 2127.51 4428.96 2128.51L4431.41 1988.53ZM4323.43 1706.6L4454.17 1656.53C4433.75 1603.2 4382.98 1567.62 4325.88 1566.62L4323.43 1706.6ZM4319.64 1706.53L4322.09 1566.55C4244.78 1565.2 4181.02 1626.78 4179.67 1704.09L4319.64 1706.53ZM4314.74 1987.69L4312.29 2127.67C4389.6 2129.02 4453.37 2067.44 4454.72 1990.13L4314.74 1987.69ZM4243.75 1986.45L4103.77 1984.01C4102.42 2061.31 4164 2125.08 4241.31 2126.43L4243.75 1986.45ZM4250.88 1578.08L4248.44 1718.05L4338.96 1719.63L4341.41 1579.66L4343.85 1439.68L4253.32 1438.1L4250.88 1578.08ZM4341.41 1579.66L4210.95 1630.46L4327.02 1928.49L4457.48 1877.68L4587.93 1826.88L4471.86 1528.85L4341.41 1579.66ZM4457.48 1877.68L4455.03 2017.66L4459.82 2017.75L4462.26 1877.77L4464.71 1737.79L4459.92 1737.71L4457.48 1877.68ZM4462.26 1877.77L4590.87 1933.1L4717.27 1639.3L4588.66 1583.97L4460.06 1528.64L4333.66 1822.44L4462.26 1877.77ZM4588.66 1583.97L4586.22 1723.95L4676.75 1725.53L4679.19 1585.55L4681.64 1445.57L4591.11 1443.99L4588.66 1583.97ZM4679.19 1585.55L4539.21 1583.11L4532.09 1991.48L4672.06 1993.93L4812.04 1996.37L4819.17 1588L4679.19 1585.55ZM4672.06 1993.93L4674.51 1853.95L4603.52 1852.71L4601.08 1992.69L4598.63 2132.67L4669.62 2133.9L4672.06 1993.93ZM4601.08 1992.69L4741.06 1995.13L4745.95 1714.57L4605.97 1712.13L4466 1709.69L4461.1 1990.24L4601.08 1992.69ZM4605.97 1712.13L4608.42 1572.15L4604.63 1572.08L4602.19 1712.06L4599.74 1852.04L4603.53 1852.11L4605.97 1712.13ZM4602.19 1712.06L4473.31 1657.36L4355.58 1934.76L4484.45 1989.45L4613.32 2044.15L4731.06 1766.76L4602.19 1712.06ZM4484.45 1989.45L4486.89 1849.48L4433.85 1848.55L4431.41 1988.53L4428.96 2128.51L4482.01 2129.43L4484.45 1989.45ZM4431.41 1988.53L4562.15 1938.46L4454.17 1656.53L4323.43 1706.6L4192.69 1756.67L4300.67 2038.6L4431.41 1988.53ZM4323.43 1706.6L4325.88 1566.62L4322.09 1566.55L4319.64 1706.53L4317.2 1846.51L4320.99 1846.58L4323.43 1706.6ZM4319.64 1706.53L4179.67 1704.09L4174.76 1985.25L4314.74 1987.69L4454.72 1990.13L4459.62 1708.98L4319.64 1706.53ZM4314.74 1987.69L4317.18 1847.71L4246.19 1846.47L4243.75 1986.45L4241.31 2126.43L4312.29 2127.67L4314.74 1987.69ZM4243.75 1986.45L4383.73 1988.89L4390.86 1580.52L4250.88 1578.08L4110.9 1575.63L4103.77 1984.01L4243.75 1986.45Z" fill="#4F4F4F" mask="url(#path-5-outside-2_6_4)"/>
<path d="M3177.13 1971C3152.97 1972.26 3131.81 1964.85 3113.66 1948.76C3095.51 1932.67 3085.92 1912.4 3084.91 1887.96C3083.39 1864.07 3090.82 1843.18 3107.19 1825.28C3123.55 1807.38 3143.82 1797.8 3167.99 1796.53C3191.35 1795.31 3212.11 1802.74 3230.27 1818.83C3248.68 1834.91 3258.65 1854.89 3260.17 1878.77C3260.75 1894.99 3257.27 1909.95 3249.74 1923.66C3242.47 1937.35 3232.4 1948.53 3219.54 1957.19C3206.93 1965.57 3192.8 1970.18 3177.13 1971Z" fill="white"/>
</svg>
